<svg version="1.1" xmlns="http://www.w3.org/2000/svg" xmlns:xlink="http://www.w3.org/1999/xlink" width="530.24675" height="407.52903" viewBox="0,0,530.24675,407.52903"><g transform="translate(17.21797,20.90791)"><g fill="#a8ffff" stroke="none" stroke-width="0" stroke-miterlimit="10"><path d="M140.64565,54.95445l-25.64139,-25.64139l25.64139,-25.64139l25.64139,25.64139z"/><path d="M51.05105,201.09559l-25.64138,-25.64139l25.64139,-25.64138l25.64139,25.64138z"/><path d="M140.13513,76.96646l-25.64138,-25.64139l25.64139,-25.64138l25.64139,25.64139z"/><path d="M247.23724,83.46796l-25.64139,-25.64139l25.64139,-25.64138l25.64139,25.64139z"/><path d="M319.8048,101.98148l-25.64139,-25.64139l25.64139,-25.64138l25.64139,25.64138z"/><path d="M233.21321,48.42292l-25.64139,-25.64139l25.64139,-25.64138l25.64139,25.64139z"/><path d="M284.75976,93.96346l-25.64139,-25.64139l25.64139,-25.64138l25.64139,25.64138z"/><path d="M390.36036,115.47998l-25.64138,-25.64139l25.64138,-25.64138l25.64139,25.64139z"/><path d="M384.84985,85.94544l-25.64139,-25.64139l25.64139,-25.64139l25.64139,25.64139z"/><path d="M440.9009,68.42292l-25.64139,-25.64139l25.64139,-25.64139l25.64139,25.64139z"/><path d="M477.43243,112.46196l-25.64139,-25.64139l25.64139,-25.64138l25.64139,25.64139z"/><path d="M339.78979,30.37487l-25.64139,-25.64139l25.64139,-25.64139l25.64139,25.64139z"/><path d="M115.06006,143.48298l-25.64139,-25.64139l25.64139,-25.64138l25.64139,25.64139z"/><path d="M118.55856,312.14664l-25.64139,-25.64139l25.64139,-25.64139l25.64139,25.64139z"/><path d="M72.50751,284.11361l-25.64139,-25.64139l25.64139,-25.64138l25.64139,25.64138z"/><path d="M106.03604,281.6061l-25.64139,-25.64139l25.64139,-25.64139l25.64139,25.64139z"/><path d="M20.94595,265.58508l-25.64139,-25.64139l25.64139,-25.64139l25.64139,25.64139z"/><path d="M15.43543,72.38688l-25.64139,-25.64139l25.64139,-25.64139l25.64139,25.64139z"/><path d="M8.42342,146.45595l-25.64139,-25.64139l25.64139,-25.64139l25.64139,25.64139z"/><path d="M90,130.43493l-25.64139,-25.64139l25.64139,-25.64139l25.64139,25.64139z"/><path d="M70.97598,78.37787l-25.64139,-25.64139l25.64139,-25.64139l25.64139,25.64139z"/><path d="M487.38739,173.46796l-25.64139,-25.64139l25.64139,-25.64139l25.64139,25.64139z"/><path d="M457.85285,237.02652l-25.64139,-25.64139l25.64139,-25.64139l25.64139,25.64139z"/><path d="M435.82583,193.97847l-25.64139,-25.64139l25.64139,-25.64139l25.64139,25.64139z"/><path d="M397.28228,174.95445l-25.64139,-25.64139l25.64139,-25.64139l25.64139,25.64139z"/><path d="M148.52853,372.14664l-25.64139,-25.64139l25.64139,-25.64139l25.64139,25.64139z"/><path d="M9.38438,383.15265l-25.64139,-25.64139l25.64139,-25.64139l25.64139,25.64139z"/><path d="M30.9009,328.09259l-25.64139,-25.64139l25.64139,-25.64139l25.64139,25.64139z"/><path d="M83.94895,358.61811l-25.64139,-25.64139l25.64139,-25.64139l25.64139,25.64139z"/><path d="M115.97598,372.62712l-25.64139,-25.64139l25.64139,-25.64139l25.64139,25.64139z"/><path d="M481.33634,283.03253l-25.64139,-25.64139l25.64139,-25.64139l25.64139,25.64139z"/><path d="M417.26727,274.51901l-25.64139,-25.64139l25.64139,-25.64139l25.64139,25.64139z"/><path d="M410.25525,305.04454l-25.64139,-25.64139l25.64139,-25.64139l25.64139,25.64139z"/><path d="M209.54955,386.62112l-25.64139,-25.64139l25.64139,-25.64139l25.64139,25.64139z"/><path d="M187.52252,94.32382l-25.64139,-25.64139l25.64139,-25.64139l25.64139,25.64139z"/><path d="M279.11411,363.09259l-25.64138,-25.64139l25.64138,-25.64138l25.64139,25.64138z"/><path d="M195.52553,359.08358l-25.64139,-25.64139l25.64139,-25.64138l25.64139,25.64138z"/><path d="M230.55556,365.58508l-25.64139,-25.64139l25.64139,-25.64138l25.64139,25.64138z"/><path d="M411.23123,360.07457l-25.64139,-25.64139l25.64139,-25.64138l25.64139,25.64138z"/><path d="M357.67267,366.57607l-25.64139,-25.64139l25.64139,-25.64138l25.64139,25.64138z"/><path d="M476.78679,316.02051l-25.64139,-25.64139l25.64139,-25.64138l25.64139,25.64138z"/><path d="M468.27327,375.07457l-25.64139,-25.64139l25.64139,-25.64138l25.64139,25.64138z"/><path d="M354.65466,336.53102l-25.64139,-25.64139l25.64139,-25.64138l25.64139,25.64138z"/></g></g></svg>