<svg version="1.1" xmlns="http://www.w3.org/2000/svg" xmlns:xlink="http://www.w3.org/1999/xlink" width="549.15104" height="357" viewBox="0,0,549.15104,357"><g transform="translate(34.57552,51.5)"><g fill="#ffffff" stroke="none" stroke-width="0" stroke-miterlimit="10"><path d="M-34.57552,305.5l86.98437,-357h22l-86.98437,357z"/><path d="M9.42448,305.5l86.98437,-357h22l-86.98437,357z"/><path d="M53.42448,305.5l86.98437,-357h22l-86.98437,357z"/><path d="M97.54948,305.5l86.98437,-357h22l-86.98437,357z"/><path d="M141.54948,305.5l86.98438,-357h22l-86.98437,357z"/><path d="M185.54948,305.5l86.98437,-357h22l-86.98437,357z"/><path d="M229.54948,305.5l86.98437,-357h22l-86.98437,357z"/><path d="M273.67448,305.5l86.98437,-357h22l-86.98437,357z"/><path d="M317.67448,305.5l86.98437,-357h22l-86.98437,357z"/><path d="M317.59115,305.5l86.98437,-357h22l-86.98437,357z"/><path d="M361.59115,305.5l86.98437,-357h22l-86.98437,357z"/><path d="M405.59115,305.5l86.98437,-357h22l-86.98437,357z"/></g></g></svg>