<svg version="1.1" xmlns="http://www.w3.org/2000/svg" xmlns:xlink="http://www.w3.org/1999/xlink" width="344.06826" height="181.77273" viewBox="0,0,344.06826,181.77273"><g transform="translate(-68.51348,-89.59186)"><g stroke-miterlimit="10"><path d="M73.81509,226.49924l2.88647,-131.87564l328.33608,25.52723l-2.16485,145.22557z" fill="#000000" stroke="none" stroke-width="NaN" stroke-linecap="butt"/><path d="M74.84209,223.9279l1.80404,-127.63614l329.53877,23.25213l-3.60809,144.77456z" fill="none" stroke="#ffffff" stroke-width="12.5" stroke-linecap="round"/><g><path d="M147.58983,133.12043v-13.50425l46.68133,3.41774v13.50425z" fill="#ffffff" stroke="none" stroke-width="0" stroke-linecap="butt"/><path d="M182.71024,148.6253v-25.17458h11.50362v25.17458z" fill="#ffffff" stroke="none" stroke-width="0" stroke-linecap="butt"/><path d="M210.0707,137.91823v-14.17112l39.67914,4.75149v14.17112z" fill="#ffffff" stroke="none" stroke-width="0" stroke-linecap="butt"/><path d="M204.16143,166.37162v-13.67097l51.84963,5.16829v13.67097z" fill="#ffffff" stroke="none" stroke-width="0" stroke-linecap="butt"/><path d="M216.64684,220.22187v-13.1708l30.34287,3.9179v13.1708z" fill="#ffffff" stroke="none" stroke-width="0" stroke-linecap="butt"/><path d="M243.89614,208.8294v-38.34539h12.00377v38.34539z" fill="#ffffff" stroke="none" stroke-width="0" stroke-linecap="butt"/><path d="M238.69573,214.45766l8.77433,-10.64751l8.38559,5.0965l-9.10777,15.31564z" fill="#ffffff" stroke="none" stroke-width="0" stroke-linecap="butt"/><path d="M146.47992,202.28338v-16.8942h13.33753v16.8942z" fill="#ffffff" stroke="none" stroke-width="0" stroke-linecap="butt"/><path d="M156.48306,212.7311v-12.89294l38.67882,4.44584v12.89294z" fill="#ffffff" stroke="none" stroke-width="0" stroke-linecap="butt"/><path d="M148.22517,207.40999l-1.8101,-5.14448h12.67065v10.67002c0,0 -5.12336,-0.45891 -7.08428,-1.45658c-1.5731,-0.80036 -3.77627,-4.06897 -3.77627,-4.06897z" fill="#ffffff" stroke="none" stroke-width="0" stroke-linecap="butt"/><path d="M272.96412,175.75652v-45.79218l13.55981,2.00063v45.79218z" fill="#ffffff" stroke="none" stroke-width="0" stroke-linecap="butt"/><path d="M292.52582,156.19481v-25.34129h8.89168v25.34129z" fill="#ffffff" stroke="none" stroke-width="0" stroke-linecap="butt"/><path d="M309.19773,155.52794v-22.4515h8.89168v22.4515z" fill="#ffffff" stroke="none" stroke-width="0" stroke-linecap="butt"/><path d="M333.64986,148.41459v-14.22669l43.34696,5.11272v14.22669z" fill="#ffffff" stroke="none" stroke-width="0" stroke-linecap="butt"/><path d="M270.40775,176.17641v-13.33753l46.45905,4.89042v13.33753z" fill="#ffffff" stroke="none" stroke-width="0" stroke-linecap="butt"/><path d="M327.31453,177.06557v-13.55981l54.23927,7.66907v13.55981z" fill="#ffffff" stroke="none" stroke-width="0" stroke-linecap="butt"/><path d="M369.99461,227.74817v-46.68133h11.55919v46.68133z" fill="#ffffff" stroke="none" stroke-width="0" stroke-linecap="butt"/><path d="M338.42914,236.63985v-14.22669l28.67568,3.11209v14.22669z" fill="#ffffff" stroke="none" stroke-width="0" stroke-linecap="butt"/><path d="M264.62816,215.29981l0.22229,-48.68197c0,0 2.56826,-4.00125 4.22355,-4.00125c2.09378,0 7.11335,0 7.11335,0v52.68323z" fill="#ffffff" stroke="none" stroke-width="0" stroke-linecap="butt"/><path d="M264.62816,225.85869v-12.67065l52.23864,6.11303v12.67065z" fill="#ffffff" stroke="none" stroke-width="0" stroke-linecap="butt"/><path d="M359.37002,233.16929l16.86934,-16.45109l5.21037,11.14762c0,0 -0.59278,7.67522 -3.0474,9.67911c-2.38868,1.95008 -11.48787,2.18721 -11.48787,2.18721z" fill="#ffffff" stroke="none" stroke-width="0" stroke-linecap="butt"/><path d="M105.14593,139.22652l6.89105,8.66939l-0.88917,26.89734l-6.00188,7.55794" fill="none" stroke="#ffffff" stroke-width="6" stroke-linecap="round"/><path d="M113.14845,133.22463l9.55856,11.33689l0.44458,34.89985l-8.00252,9.11398" fill="none" stroke="#ffffff" stroke-width="6" stroke-linecap="round"/><path d="M96.03196,148.78508l3.77897,3.77897l1.11146,13.78211l-4.00125,3.33438" fill="none" stroke="#ffffff" stroke-width="6" stroke-linecap="round"/></g></g></g></svg>