<svg version="1.1" xmlns="http://www.w3.org/2000/svg" xmlns:xlink="http://www.w3.org/1999/xlink" width="846.08707" height="516.70709" viewBox="0,0,846.08707,516.70709"><defs><radialGradient cx="240" cy="180.00001" r="207.02123" gradientUnits="userSpaceOnUse" id="color-1"><stop offset="0" stop-color="#d90035"/><stop offset="1" stop-color="#d90035" stop-opacity="0"/></radialGradient></defs><g transform="translate(183.04354,78.35354)"><g stroke-miterlimit="10"><path d="M-3.51391,366.19327v-372.38653h487.02782v372.38653z" fill="#5e0017" stroke="none" stroke-width="0"/><path d="M32.97877,180.00001c0,-114.33467 92.68656,-207.02123 207.02123,-207.02123c114.33467,0 207.02123,92.68656 207.02123,207.02123c0,114.33467 -92.68656,207.02123 -207.02123,207.02123c-114.33467,0 -207.02123,-92.68656 -207.02123,-207.02123z" fill="url(#color-1)" stroke="none" stroke-width="0"/><g fill="none" stroke="#000000" stroke-width="2.5"><path d="M262.26149,437.10356l-310.60831,-514.20709h66.24065l310.60831,514.20709z"/><path d="M328.50214,437.10356l-310.60831,-514.20709h66.24065l310.60831,514.20709z"/><path d="M129.78019,437.10356l-310.60831,-514.20709h66.24065l310.60831,514.20709z"/><path d="M196.02084,437.10356l-310.60831,-514.20709h66.24065l310.60831,514.20709z"/><path d="M528.34682,437.10356l-310.60831,-514.20709h66.24065l310.60831,514.20709z"/><path d="M594.58747,437.10356l-310.60831,-514.20709h66.24065l310.60831,514.20709z"/><path d="M395.86552,437.10356l-310.60831,-514.20709h66.24065l310.60831,514.20709z"/><path d="M462.10617,437.10356l-310.60831,-514.20709h66.24065l310.60831,514.20709z"/></g><g fill="#ffffff" stroke="none" stroke-width="0"><path d="M170.57193,36.6348v-40.55851h246.44649v40.55852z"/><path d="M86.2032,56.91406v-40.55851h246.44651v40.55852z"/><path d="M118.24714,77.19332v-40.55852h246.44651v40.55852z"/><path d="M69.30837,116.17106v-40.55851h246.4465v40.55852z"/><path d="M144.37438,136.45032v-40.55852h246.4465v40.55852z"/><path d="M110.24495,163.20971v-40.55852h230.44209v40.55852z"/><path d="M126.24935,198.41457v-40.55852h230.44209v40.55852z"/><path d="M62.98159,218.69383v-40.55852h230.44209v40.55852z"/><path d="M110.24495,252.95546v-40.55851h230.44209v40.55852z"/><path d="M143.96431,290.04676v-40.55851h230.4421v40.55851z"/><path d="M112.33045,310.32602v-40.55852h230.4421v40.55852z"/><path d="M62.98159,341.758v-40.55851h230.44209v40.55852z"/><path d="M97.55625,363.9237v-40.55851h230.44209v40.55852z"/></g></g></g></svg>