<svg version="1.1" xmlns="http://www.w3.org/2000/svg" xmlns:xlink="http://www.w3.org/1999/xlink" width="530.24673" height="554.54437" viewBox="0,0,530.24673,554.54437"><g transform="translate(17.21795,167.92325)"><g stroke="none" stroke-width="0" stroke-miterlimit="10"><path d="M86.88618,-164.30557l-1.20589,-1.20589l2.41178,-2.41179l1.20589,1.2059z" fill="#ffffa8"/><path d="M140.64565,54.95445l-25.64138,-25.64139l25.64139,-25.64138l25.64139,25.64139z" fill="#a8ffff"/><path d="M51.05105,201.09559l-25.64138,-25.64139l25.64138,-25.64138l25.64139,25.64138z" fill="#a8ffff"/><path d="M140.13514,76.96646l-25.64138,-25.64139l25.64138,-25.64138l25.64139,25.64138z" fill="#a8ffff"/><path d="M247.23724,83.46797l-25.64138,-25.64139l25.64138,-25.64138l25.64139,25.64139z" fill="#a8ffff"/><path d="M319.80481,101.98148l-25.64139,-25.64139l25.64139,-25.64138l25.64139,25.64139z" fill="#a8ffff"/><path d="M233.21322,48.42292l-25.64138,-25.64139l25.64138,-25.64138l25.64139,25.64139z" fill="#a8ffff"/><path d="M284.75976,93.96346l-25.64139,-25.64139l25.64139,-25.64138l25.64139,25.64139z" fill="#a8ffff"/><path d="M390.36036,115.47998l-25.64139,-25.64139l25.64139,-25.64138l25.64139,25.64139z" fill="#a8ffff"/><path d="M384.84985,85.94544l-25.64139,-25.64139l25.64139,-25.64138l25.64139,25.64139z" fill="#a8ffff"/><path d="M440.9009,68.42292l-25.64138,-25.64139l25.64138,-25.64138l25.64139,25.64138z" fill="#a8ffff"/><path d="M477.43243,112.46196l-25.64139,-25.64139l25.64139,-25.64139l25.64139,25.64139z" fill="#a8ffff"/><path d="M339.78979,30.37487l-25.64138,-25.64139l25.64138,-25.64138l25.64139,25.64139z" fill="#a8ffff"/><path d="M115.06006,143.48298l-25.64138,-25.64139l25.64139,-25.64138l25.64139,25.64139z" fill="#a8ffff"/><path d="M118.55856,312.14664l-25.64138,-25.64139l25.64139,-25.64139l25.64139,25.64139z" fill="#a8ffff"/><path d="M72.5075,284.11361l-25.64138,-25.64139l25.64138,-25.64138l25.64139,25.64138z" fill="#a8ffff"/><path d="M106.03604,281.6061l-25.64138,-25.64139l25.64139,-25.64138l25.64139,25.64138z" fill="#a8ffff"/><path d="M20.94594,265.58508l-25.64138,-25.64139l25.64139,-25.64139l25.64139,25.64139z" fill="#a8ffff"/><path d="M15.43544,72.38688l-25.64138,-25.64139l25.64139,-25.64138l25.64139,25.64138z" fill="#a8ffff"/><path d="M8.42343,146.45595l-25.64138,-25.64139l25.64139,-25.64138l25.64139,25.64139z" fill="#a8ffff"/><path d="M90,130.43493l-25.64138,-25.64139l25.64139,-25.64138l25.64139,25.64139z" fill="#a8ffff"/><path d="M70.97598,78.37788l-25.64139,-25.64139l25.64139,-25.64139l25.64139,25.64139z" fill="#a8ffff"/><path d="M487.38739,173.46797l-25.64139,-25.64139l25.64139,-25.64138l25.64139,25.64138z" fill="#a8ffff"/><path d="M457.85285,237.02652l-25.64139,-25.64139l25.64139,-25.64139l25.64139,25.64139z" fill="#a8ffff"/><path d="M435.82583,193.97848l-25.64139,-25.64139l25.64139,-25.64139l25.64139,25.64139z" fill="#a8ffff"/><path d="M397.28228,174.95445l-25.64139,-25.64139l25.64139,-25.64139l25.64139,25.64139z" fill="#a8ffff"/><path d="M148.52853,372.14664l-25.64138,-25.64139l25.64138,-25.64139l25.64139,25.64139z" fill="#a8ffff"/><path d="M9.38439,383.15265l-25.64138,-25.64139l25.64139,-25.64139l25.64139,25.64139z" fill="#a8ffff"/><path d="M30.9009,328.09259l-25.64138,-25.64139l25.64139,-25.64138l25.64139,25.64138z" fill="#a8ffff"/><path d="M83.94895,358.61812l-25.64138,-25.64139l25.64139,-25.64139l25.64139,25.64139z" fill="#a8ffff"/><path d="M115.97598,372.62713l-25.64138,-25.64139l25.64139,-25.64138l25.64139,25.64138z" fill="#a8ffff"/><path d="M481.33634,283.03253l-25.64139,-25.64139l25.64139,-25.64139l25.64139,25.64139z" fill="#a8ffff"/><path d="M417.26727,274.51902l-25.64139,-25.64139l25.64139,-25.64138l25.64139,25.64138z" fill="#a8ffff"/><path d="M410.25526,305.04454l-25.64138,-25.64139l25.64138,-25.64138l25.64139,25.64138z" fill="#a8ffff"/><path d="M209.54955,386.62112l-25.64139,-25.64139l25.64139,-25.64138l25.64139,25.64138z" fill="#a8ffff"/><path d="M187.52252,94.32382l-25.64138,-25.64139l25.64138,-25.64138l25.64139,25.64139z" fill="#a8ffff"/><path d="M279.11412,363.09259l-25.64139,-25.64139l25.64139,-25.64138l25.64139,25.64138z" fill="#a8ffff"/><path d="M195.52553,359.08358l-25.64138,-25.64139l25.64138,-25.64139l25.64139,25.64139z" fill="#a8ffff"/><path d="M230.55556,365.58508l-25.64138,-25.64139l25.64138,-25.64139l25.64139,25.64139z" fill="#a8ffff"/><path d="M411.23123,360.07457l-25.64138,-25.64139l25.64138,-25.64139l25.64139,25.64139z" fill="#a8ffff"/><path d="M357.67268,366.57607l-25.64139,-25.64139l25.64139,-25.64139l25.64139,25.64139z" fill="#a8ffff"/><path d="M476.78679,316.02052l-25.64139,-25.64139l25.64139,-25.64139l25.64139,25.64139z" fill="#a8ffff"/><path d="M468.27328,375.07457l-25.64139,-25.64139l25.64139,-25.64139l25.64139,25.64139z" fill="#a8ffff"/><path d="M354.65466,336.53103l-25.64139,-25.64139l25.64139,-25.64139l25.64139,25.64139z" fill="#a8ffff"/></g></g></svg>