<svg version="1.1" xmlns="http://www.w3.org/2000/svg" xmlns:xlink="http://www.w3.org/1999/xlink" width="530.24673" height="407.52902" viewBox="0,0,530.24673,407.52902"><g transform="translate(17.21795,20.9079)"><g fill="#a8ffff" stroke="none" stroke-width="0" stroke-miterlimit="10"><path d="M140.64565,54.95446l-25.64138,-25.64139l25.64139,-25.64138l25.64139,25.64139z"/><path d="M51.05105,201.09559l-25.64138,-25.64139l25.64138,-25.64138l25.64139,25.64138z"/><path d="M140.13514,76.96647l-25.64138,-25.64139l25.64138,-25.64138l25.64139,25.64138z"/><path d="M247.23724,83.46798l-25.64138,-25.64139l25.64138,-25.64138l25.64139,25.64139z"/><path d="M319.80481,101.98149l-25.64139,-25.64139l25.64139,-25.64138l25.64139,25.64139z"/><path d="M233.21322,48.42292l-25.64138,-25.64139l25.64138,-25.64138l25.64139,25.64139z"/><path d="M284.75976,93.96347l-25.64139,-25.64139l25.64139,-25.64138l25.64139,25.64139z"/><path d="M390.36036,115.47999l-25.64139,-25.64139l25.64139,-25.64138l25.64139,25.64139z"/><path d="M384.84985,85.94545l-25.64139,-25.64139l25.64139,-25.64138l25.64139,25.64139z"/><path d="M440.9009,68.42293l-25.64138,-25.64139l25.64138,-25.64138l25.64139,25.64138z"/><path d="M477.43243,112.46197l-25.64139,-25.64139l25.64139,-25.64139l25.64139,25.64139z"/><path d="M339.78979,30.37488l-25.64138,-25.64139l25.64138,-25.64138l25.64139,25.64139z"/><path d="M115.06006,143.48299l-25.64138,-25.64139l25.64139,-25.64138l25.64139,25.64139z"/><path d="M118.55856,312.14665l-25.64138,-25.64139l25.64139,-25.64139l25.64139,25.64139z"/><path d="M72.5075,284.11362l-25.64138,-25.64139l25.64138,-25.64138l25.64139,25.64138z"/><path d="M106.03604,281.60611l-25.64138,-25.64139l25.64139,-25.64138l25.64139,25.64138z"/><path d="M20.94594,265.58509l-25.64138,-25.64139l25.64139,-25.64139l25.64139,25.64139z"/><path d="M15.43544,72.38689l-25.64138,-25.64139l25.64139,-25.64138l25.64139,25.64138z"/><path d="M8.42343,146.45595l-25.64138,-25.64139l25.64139,-25.64138l25.64139,25.64139z"/><path d="M90,130.43494l-25.64138,-25.64139l25.64139,-25.64138l25.64139,25.64139z"/><path d="M70.97598,78.37789l-25.64139,-25.64139l25.64139,-25.64139l25.64139,25.64139z"/><path d="M487.38739,173.46798l-25.64139,-25.64139l25.64139,-25.64138l25.64139,25.64138z"/><path d="M457.85285,237.02653l-25.64139,-25.64139l25.64139,-25.64139l25.64139,25.64139z"/><path d="M435.82583,193.97849l-25.64139,-25.64139l25.64139,-25.64139l25.64139,25.64139z"/><path d="M397.28228,174.95446l-25.64139,-25.64139l25.64139,-25.64139l25.64139,25.64139z"/><path d="M148.52853,372.14665l-25.64138,-25.64139l25.64138,-25.64139l25.64139,25.64139z"/><path d="M9.38439,383.15266l-25.64138,-25.64139l25.64139,-25.64139l25.64139,25.64139z"/><path d="M30.9009,328.09259l-25.64138,-25.64139l25.64139,-25.64138l25.64139,25.64138z"/><path d="M83.94895,358.61813l-25.64138,-25.64139l25.64139,-25.64139l25.64139,25.64139z"/><path d="M115.97598,372.62714l-25.64138,-25.64139l25.64139,-25.64138l25.64139,25.64138z"/><path d="M481.33634,283.03254l-25.64139,-25.64139l25.64139,-25.64139l25.64139,25.64139z"/><path d="M417.26727,274.51903l-25.64139,-25.64139l25.64139,-25.64138l25.64139,25.64138z"/><path d="M410.25526,305.04454l-25.64138,-25.64139l25.64138,-25.64138l25.64139,25.64138z"/><path d="M209.54955,386.62113l-25.64139,-25.64139l25.64139,-25.64138l25.64139,25.64138z"/><path d="M187.52252,94.32383l-25.64138,-25.64139l25.64138,-25.64138l25.64139,25.64139z"/><path d="M279.11412,363.09259l-25.64139,-25.64139l25.64139,-25.64138l25.64139,25.64138z"/><path d="M195.52553,359.08359l-25.64138,-25.64139l25.64138,-25.64139l25.64139,25.64139z"/><path d="M230.55556,365.58509l-25.64138,-25.64139l25.64138,-25.64139l25.64139,25.64139z"/><path d="M411.23123,360.07458l-25.64138,-25.64139l25.64138,-25.64139l25.64139,25.64139z"/><path d="M357.67268,366.57608l-25.64139,-25.64139l25.64139,-25.64139l25.64139,25.64139z"/><path d="M476.78679,316.02053l-25.64139,-25.64139l25.64139,-25.64139l25.64139,25.64139z"/><path d="M468.27328,375.07458l-25.64139,-25.64139l25.64139,-25.64139l25.64139,25.64139z"/><path d="M354.65466,336.53104l-25.64139,-25.64139l25.64139,-25.64139l25.64139,25.64139z"/></g></g></svg>