<svg version="1.1" xmlns="http://www.w3.org/2000/svg" xmlns:xlink="http://www.w3.org/1999/xlink" width="472.88122" height="330.5" viewBox="0,0,472.88122,330.5"><g transform="translate(-1.90003,-26.3125)"><g fill="none" stroke="#ffffff" stroke-miterlimit="10"><path d="M21.5,345v-58.6875l8.55432,-6.53696l0.44568,-32.50471l-9.34309,-8.12288l0.34309,-47.83545l-7.88786,-16.02048l-0.11214,-63.97952l8,-11v-63.3125h367l71,61.3125l-1,166l-85,80.6875z" stroke-width="4"/><path d="M38.5,39.3125l8.5,-13h167l-8.5,13z" stroke-width="0"/><path d="M216.83333,38.64583h170.66667l-9.55208,10h-153.90104z" stroke-width="0"/><path d="M384.91994,345.5489l74.67149,-72.81916l1.14835,16.16314l-57.79777,56.77107z" stroke-width="4"/><path d="M413.7178,347.12406l47.33333,-47.33333v47.33333z" stroke-width="3"/><path d="M28.83334,338.3125v-39l39,39z" stroke-width="4"/><path d="M466.78125,103.375l6,6.0625v26l-6,-6.0625z" stroke-width="4"/><path d="M466.78125,137.375l6,6.0625v13l-6,-6.0625z" stroke-width="4"/><path d="M466.78125,157.875l6,6.0625v13l-6,-6.0625z" stroke-width="4"/><path d="M466.78125,178.375l6,6.0625v13l-6,-6.0625z" stroke-width="4"/><path d="M2.15003,356.5625v-7.5h17v7.5z" stroke-width="0.5"/><path d="M22.15003,356.5625v-7.5h17v7.5z" stroke-width="0.5"/><path d="M42.15003,356.5625v-7.5h17v7.5z" stroke-width="0.5"/><path d="M62.15003,356.5625v-7.5h17v7.5z" stroke-width="0.5"/><path d="M82.15003,356.5625v-7.5h17v7.5z" stroke-width="0.5"/><path d="M102.15003,356.5625v-7.5h17v7.5z" stroke-width="0.5"/><path d="M122.15003,356.5625v-7.5h17v7.5z" stroke-width="0.5"/><path d="M30.96564,88.84375v-40h134.78247v40z" stroke-width="3"/></g></g></svg>