<svg version="1.1" xmlns="http://www.w3.org/2000/svg" xmlns:xlink="http://www.w3.org/1999/xlink" width="339.38728" height="274.44279" viewBox="0,0,339.38728,274.44279"><g transform="translate(-70.36151,-43.20862)"><g stroke-miterlimit="10"><path d="M81.3,311.65l-5.8,-211.6l329,-51.7l-6.4,176.6z" fill="#000000" stroke="none" stroke-width="0" stroke-linecap="butt"/><path d="M396.96099,221.06739l-313.92198,88.39932l-6.26452,-208.81728l326.45102,-50.11615z" fill="none" stroke="#f5f5f5" stroke-width="12.5" stroke-linecap="round"/><path d="M208.77904,188.90345l-1.61715,-15.87776l25.30759,-5.87426l0.95048,16.21109z" fill="#ffffff" stroke="#f67c33" stroke-width="0" stroke-linecap="butt"/><path d="M170.03167,163.43192v-18.38596l36,-5.52632v18.38596z" fill="#ffffff" stroke="#f67c33" stroke-width="0" stroke-linecap="butt"/><path d="M181.53167,250.71262l-2.83333,-128.33333h19l2.83333,128.33333z" fill="#ffffff" stroke="none" stroke-width="0" stroke-linecap="butt"/><path d="M210.77904,243.23679l-4.28381,-15.2111l24.97426,-6.2076l2.28381,13.21109z" fill="#ffffff" stroke="#f67c33" stroke-width="0" stroke-linecap="butt"/><path d="M291.03168,138.71262v-18.15789l41,-8.67544v18.15789z" fill="#ffffff" stroke="none" stroke-width="0" stroke-linecap="butt"/><path d="M299.80945,220.23114v-119h14v119z" fill="#ffffff" stroke="none" stroke-width="0" stroke-linecap="butt"/><path d="M320.19068,219.83083l1.23829,-104.32598l10.66592,0.1266l-1.23829,104.32598z" fill="#ffffff" stroke="none" stroke-width="0" stroke-linecap="butt"/><path d="M334.29094,164.71262v-66.66667h12.66667v66.66667z" fill="#ffffff" stroke="none" stroke-width="0" stroke-linecap="butt"/><path d="M353.9576,108.71262v-17.42133l31.66667,-5.74533v17.42133z" fill="#ffffff" stroke="none" stroke-width="0" stroke-linecap="butt"/><path d="M351.62427,144.37929v-17l36,-6.83333v17z" fill="#ffffff" stroke="none" stroke-width="0" stroke-linecap="butt"/><path d="M378.00927,208.69362l0.34118,-85.33265l9.33326,0.03732l-0.34118,85.33265z" fill="#ffffff" stroke="none" stroke-width="0" stroke-linecap="butt"/><path d="M267.77904,177.57011l-1.61714,-15.87777l25.30759,-5.87426l0.95048,16.21108z" fill="#ffffff" stroke="#f67c33" stroke-width="0" stroke-linecap="butt"/><path d="M229.03167,152.09858v-18.38596l36,-5.52632v18.38596z" fill="#ffffff" stroke="#f67c33" stroke-width="0" stroke-linecap="butt"/><path d="M240.53167,239.37928l-2.83333,-128.33333h19l2.83333,128.33333z" fill="#ffffff" stroke="none" stroke-width="0" stroke-linecap="butt"/><path d="M269.77904,231.90345l-4.28382,-15.21109l24.97426,-6.2076l2.28382,13.21109z" fill="#ffffff" stroke="#f67c33" stroke-width="0" stroke-linecap="butt"/><path d="M107.69649,266.57923c0,0 26.4475,-101.12189 32.17,-118.03356c1.53166,-4.52651 9.24236,-18.90385 11.31212,-18.34404c2.1124,0.57134 0.02024,16.27647 -0.83954,21.02108c-3.22373,17.78986 -30.09348,118.75066 -30.09348,118.75066z" fill="#ffffff" stroke="none" stroke-width="0" stroke-linecap="butt"/><path d="M122.5138,208.94652c2.9859,-0.44411 8.60155,1.32119 12.49594,4.63596c5.95474,5.06846 12.52395,13.85816 12.40403,14.16947c-0.16629,0.43169 -13.22351,1.2629 -16.7331,1.95671c-3.04526,0.60201 -8.6599,-1.43218 -12.5367,-4.65108c-4.01252,-3.3316 -11.72555,-11.01799 -11.45574,-11.65297c0.22015,-0.51812 8.95578,-3.43631 15.82557,-4.45808z" fill="#ffffff" stroke="none" stroke-width="0" stroke-linecap="butt"/></g></g></svg>