<svg version="1.1" xmlns="http://www.w3.org/2000/svg" xmlns:xlink="http://www.w3.org/1999/xlink" width="185" height="185" viewBox="0,0,185,185"><g transform="translate(-147.5,-87.5)"><g stroke-miterlimit="10"><path d="M150.87426,268.24766v-176.49531h178.25148v176.49531z" fill="#9966ff" stroke="none" stroke-width="0"/><path d="M150,270v-180h180v180z" fill="none" stroke="#ffe100" stroke-width="5"/><path d="M237.74884,177.37259c-0.47076,-0.47076 -0.69079,-0.94152 -0.76025,-1.37889c-0.2633,-0.21064 -0.5266,-0.42128 -0.78989,-0.63192c-1.80822,-1.45887 -3.48962,-4.4805 -5.86341,-4.75297c-8.58589,-0.98552 -17.21051,4.69584 -24.22016,8.8979c-2.265,1.3578 -5.51933,2.92525 -7.03102,5.2687c-1.5116,2.34331 -0.53276,7.54544 -0.53276,10.1473c0,0 0,2.5 -2.5,2.5c-2.5,0 -2.5,-2.5 -2.5,-2.5c0,-3.89495 -0.87609,-9.173 1.22341,-12.68294c1.89965,-3.17584 5.74329,-5.20423 8.77453,-7.0245c7.62961,-4.5816 18.12391,-11.4028 27.58692,-9.5419c4.04115,0.79469 5.20898,3.42651 8.18597,5.78406c0.73174,0.58539 1.46348,1.17078 2.19522,1.75617l-0.23301,4.15898c0,0 -1.76777,1.76777 -3.53553,0z" fill="#ffffff" stroke="none" stroke-width="0.5"/><path d="M305.63383,170.71205c1.11803,2.23607 -1.11803,3.3541 -1.11803,3.3541l-4.43594,0.59419c-0.87474,-0.73203 -1.94597,-1.27901 -2.62422,-2.19608c-3.00457,-4.06255 -3.95439,-12.60005 -10.06605,-14.02348c-1.01948,-0.23744 -2.09246,0.07457 -3.13919,0.08375c-3.26594,0.02863 -5.51605,-0.38972 -8.59494,0.82665c-4.17327,1.64872 -8.12523,5.29165 -11.4509,8.19773c-3.57457,3.12359 -7.23406,6.88491 -7.95268,11.71686c0,0 -0.411,2.46598 -2.87698,2.05499c-2.46598,-0.411 -2.05499,-2.87698 -2.05499,-2.87698c1.0903,-6.07078 5.02763,-10.64079 9.5877,-14.65387c3.75955,-3.30858 8.22521,-7.2738 12.95723,-9.1071c3.8179,-1.47915 6.39621,-1.18666 10.38556,-1.15827c1.4744,0.01049 2.99945,-0.30202 4.42253,0.08375c4.08058,1.10617 7.43717,5.11813 9.42338,8.62516c1.78009,3.1431 2.25683,6.39845 5.10702,8.52255l-0.9236,-1.16198c0,0 2.23607,-1.11803 3.3541,1.11803z" fill="#ffffff" stroke="none" stroke-width="0.5"/><path d="M268.53097,192.07897c1.76777,1.76777 0,3.53553 0,3.53553l-0.84883,0.6674c-2.81395,5.47916 -3.66718,12.43895 -5.66136,18.3422c-2.378,4.13825 -6.29669,9.04101 -10.94854,10.933c-6.70183,2.72575 -14.54839,-0.36579 -20.92988,-2.06761c-2.26248,-0.60336 -4.82381,-0.78097 -6.65994,-2.23408c-6.18973,-4.89857 -5.75778,-13.91605 -5.75778,-20.82302c0,0 0,-2.5 2.5,-2.5c2.5,0 2.5,2.5 2.5,2.5c0,5.24222 -0.8605,13.04767 3.90117,16.93469c1.64352,1.34163 2.70999,0.73291 4.75518,1.27826c4.49609,1.19889 7.83296,2.55803 12.55197,2.55633c0.57386,-0.00021 4.35014,0.11463 5.15394,-0.23352c3.43899,-1.48951 6.5861,-5.23971 8.36935,-8.3849c1.98709,-6.05821 2.97314,-12.85771 5.75376,-18.53742l1.78543,-1.96686c0,0 1.76777,-1.76777 3.53553,0z" fill="#ffffff" stroke="none" stroke-width="0.5"/></g></g></svg>