<svg version="1.1" xmlns="http://www.w3.org/2000/svg" xmlns:xlink="http://www.w3.org/1999/xlink" width="344.05369" height="181.76534" viewBox="0,0,344.05369,181.76534"><g transform="translate(-67.42556,-89.59555)"><g stroke-miterlimit="10"><path d="M77.13438,265.37264l-2.16476,-145.21918l328.32163,-25.5261l2.88634,131.86984z" fill="#000000" stroke="none" stroke-width="NaN" stroke-linecap="butt"/><path d="M77.43034,264.31474l-3.60793,-144.76819l329.52427,-23.25111l1.80397,127.63052z" fill="none" stroke="#ffffff" stroke-width="12.5" stroke-linecap="round"/><path d="M361.37944,147.46515v-27.05948l14.16113,-0.96244v27.05948z" fill="#f5f5f5" stroke="#ffffff" stroke-width="0" stroke-linecap="butt"/><path d="M346.00562,188.83914l17.15011,-47.71588l12.69554,3.81447l-17.15011,47.71588z" fill="#f5f5f5" stroke="#ffffff" stroke-width="0" stroke-linecap="butt"/><path d="M346.17821,213.34535v-25.25551l13.16894,-0.89501v25.25551z" fill="#f5f5f5" stroke="#ffffff" stroke-width="0" stroke-linecap="butt"/><path d="M358.08439,212.71656v-17.31806l34.63613,-2.35398v17.31806z" fill="#f5f5f5" stroke="#ffffff" stroke-width="0" stroke-linecap="butt"/><path d="M382.25751,211.07368v-36.62049l10.64339,-0.72335v36.62049z" fill="#f5f5f5" stroke="#ffffff" stroke-width="0" stroke-linecap="butt"/><path d="M279.57308,134.93826l-5.71256,20.7456l-22.54956,21.94824l-12.92841,1.80397" fill="none" stroke="#ffffff" stroke-width="12.5" stroke-linecap="round"/><path d="M264.54004,167.71029l-0.30067,50.81169" fill="none" stroke="#ffffff" stroke-width="12.5" stroke-linecap="round"/><path d="M294.30544,140.65081v-13.8304l44.79847,-3.9086v13.8304z" fill="#f5f5f5" stroke="#ffffff" stroke-width="0" stroke-linecap="butt"/><path d="M291.5995,172.52086v-13.52974l49.30838,-4.66024v13.52974z" fill="#f5f5f5" stroke="#ffffff" stroke-width="0" stroke-linecap="butt"/><path d="M313.54775,204.33775v-37.28195l13.8304,-1.99597v37.28194z" fill="#f5f5f5" stroke="#ffffff" stroke-width="0" stroke-linecap="butt"/><path d="M300.67946,219.87494v-13.8304l19.66322,-2.83775v13.8304z" fill="#f5f5f5" stroke="#ffffff" stroke-width="0" stroke-linecap="butt"/><path d="M312.8855,214.5426l6.9523,-15.34246l7.64753,2.60422l-6.9523,15.34246z" fill="#f5f5f5" stroke="#ffffff" stroke-width="0" stroke-linecap="butt"/><path d="M171.56901,152.64384v-15.03304l55.32159,-5.71255v15.03304z" fill="#f5f5f5" stroke="#ffffff" stroke-width="0" stroke-linecap="butt"/><path d="M215.4655,186.91918v-53.21697h11.12446v53.21697z" fill="#f5f5f5" stroke="#ffffff" stroke-width="0" stroke-linecap="butt"/><path d="M186.97788,234.42359v-68.55067l16.46118,-2.10463v68.55067z" fill="#f5f5f5" stroke="#ffffff" stroke-width="0" stroke-linecap="butt"/><path d="M200.61285,193.71411v-14.13106l19.24229,-1.94697v14.13105z" fill="#f5f5f5" stroke="#ffffff" stroke-width="0" stroke-linecap="butt"/><path d="M215.16483,186.58929c0,-3.15495 2.5576,-5.97134 5.71256,-6.29056c3.15495,-0.31923 5.71256,1.97959 5.71256,5.13455c0,3.15495 -2.5576,5.97134 -5.71256,6.29056c-3.15495,0.31923 -5.71256,-1.9796 -5.71256,-5.13455z" fill="#f5f5f5" stroke="#ffffff" stroke-width="0" stroke-linecap="butt"/><path d="M124.51346,208.81432c1.39089,-2.43406 7.94316,1.27205 9.2759,1.75045c4.70688,1.68962 3.84119,11.24798 1.14856,14.38939c-8.12053,9.47396 -17.4083,-4.84642 -12.38195,-13.22368z" fill="#f5f5f5" stroke="#ffffff" stroke-width="0.5" stroke-linecap="butt"/><path d="M143.95774,238.9349c-0.46286,1.5462 -6.13107,4.79641 -8.50408,3.91195c-0.834,0.13981 -1.71742,0.29809 -2.61474,0.66977c-5.98888,2.48068 -19.91835,1.10415 -24.99561,-4.3492c-9.5901,-10.30048 -5.19146,-28.67699 0.55415,-40.16821c-0.20263,-0.48283 -0.3146,-1.01311 -0.3146,-1.56955c0,-1.83896 1.22295,-3.39228 2.89994,-3.89104c2.39307,-2.62903 5.66324,-5.10498 8.60034,-4.45229c2.1441,0.47646 3.13595,2.0389 4.78755,2.6541c0.22569,0.08406 0.44983,0.17928 0.67008,0.2852c4.53316,-0.84947 11.34352,4.10838 14.56634,5.7198c2.96467,1.48234 6.31079,2.11559 8.85352,4.39857c5.28705,4.74697 6.77368,15.72686 5.41505,22.27571c-0.89894,4.33311 -4.45711,9.59731 -7.9709,12.41033c-0.54013,0.43241 -1.10868,0.80478 -1.70166,1.04079c-0.05515,0.34519 -0.13659,0.70066 -0.24538,1.06407zM142.16079,211.74827c-0.74669,-2.90772 -5.73586,-7.25463 -8.65313,-7.32826c-0.88893,-0.02243 -3.10099,-0.08265 -4.76852,-0.33861c-1.43446,1.64647 -4.20603,1.03205 -6.0821,3.2668c-3.52796,4.20249 -7.07446,10.62135 -4.81874,16.62798c0.32221,0.85798 1.5533,0.99423 2.2169,1.62636c0.51028,0.48607 0.74859,1.49958 1.29873,2.07668c4.63471,4.86173 5.94895,2.87585 11.34728,2.89828c0.36302,0.00151 1.45477,-0.05286 2.72591,-0.07622c0.38761,-0.55153 0.90902,-1.00218 1.51708,-1.30479c3.40247,-5.26113 6.97723,-10.59201 5.2166,-17.44822z" fill="#f5f5f5" stroke="#ffffff" stroke-width="0.5" stroke-linecap="butt"/><path d="M107.80726,157.81758l14.20622,20.97109" fill="none" stroke="#ffffff" stroke-width="11" stroke-linecap="round"/><path d="M127.87637,176.08273l1.57847,-25.48101" fill="none" stroke="#ffffff" stroke-width="11" stroke-linecap="round"/><path d="M143.88656,157.14109l-14.65722,19.84362" fill="none" stroke="#ffffff" stroke-width="11" stroke-linecap="round"/><path d="M126.72685,182.38582l-3.01107,-1.30893l-9.7981,-10.16977" fill="none" stroke="#ffffff" stroke-width="11" stroke-linecap="round"/><path d="M129.45483,181.04363l7.89235,-8.11784" fill="none" stroke="#ffffff" stroke-width="11" stroke-linecap="round"/><path d="M125.6214,170.89633l-6.76487,-1.57847" fill="none" stroke="#ffffff" stroke-width="11" stroke-linecap="round"/></g></g></svg>